<?xml version="1.0" encoding="UTF-8" standalone="no"?>
<!DOCTYPE svg PUBLIC "-//W3C//DTD SVG 1.1//EN"
 "http://www.w3.org/Graphics/SVG/1.1/DTD/svg11.dtd">
<!-- Generated by graphviz version 2.43.0 (0)
 -->
<!-- Title: G Pages: 1 -->
<svg width="2250pt" height="587pt"
 viewBox="0.00 0.00 2250.20 586.75" xmlns="http://www.w3.org/2000/svg" xmlns:xlink="http://www.w3.org/1999/xlink">
<g id="graph0" class="graph" transform="scale(1 1) rotate(0) translate(21.6 565.15)">
<title>G</title>
<polygon fill="#111111" stroke="transparent" points="-21.6,21.6 -21.6,-565.15 2228.6,-565.15 2228.6,21.6 -21.6,21.6"/>
<!-- components/Map/EnhancedMapComponent.tsx -->
<g id="node1" class="node">
<title>components/Map/EnhancedMapComponent.tsx</title>
<path fill="none" stroke="#c6c5fe" d="M676.33,-423C676.33,-423 386.67,-423 386.67,-423 382.83,-423 379,-419.17 379,-415.33 379,-415.33 379,-407.67 379,-407.67 379,-403.83 382.83,-400 386.67,-400 386.67,-400 676.33,-400 676.33,-400 680.17,-400 684,-403.83 684,-407.67 684,-407.67 684,-415.33 684,-415.33 684,-419.17 680.17,-423 676.33,-423"/>
<text text-anchor="middle" x="531.5" y="-407.8" font-family="Arial" font-size="14.00" fill="#c6c5fe">components/Map/EnhancedMapComponent.tsx</text>
</g>
<!-- components/Models/maps/RouteDrawer.tsx -->
<g id="node2" class="node">
<title>components/Models/maps/RouteDrawer.tsx</title>
<path fill="none" stroke="#cfffac" d="M992.33,-443C992.33,-443 727.67,-443 727.67,-443 723.83,-443 720,-439.17 720,-435.33 720,-435.33 720,-427.67 720,-427.67 720,-423.83 723.83,-420 727.67,-420 727.67,-420 992.33,-420 992.33,-420 996.17,-420 1000,-423.83 1000,-427.67 1000,-427.67 1000,-435.33 1000,-435.33 1000,-439.17 996.17,-443 992.33,-443"/>
<text text-anchor="middle" x="860" y="-427.8" font-family="Arial" font-size="14.00" fill="#cfffac">components/Models/maps/RouteDrawer.tsx</text>
</g>
<!-- components/Map/EnhancedMapComponent.tsx&#45;&gt;components/Models/maps/RouteDrawer.tsx -->
<g id="edge1" class="edge">
<title>components/Map/EnhancedMapComponent.tsx&#45;&gt;components/Models/maps/RouteDrawer.tsx</title>
<path fill="none" stroke="#757575" d="M684.28,-420.8C692.69,-421.31 701.13,-421.83 709.53,-422.34"/>
<polygon fill="#757575" stroke="#757575" points="709.55,-425.85 719.74,-422.97 709.98,-418.86 709.55,-425.85"/>
</g>
<!-- types/mapTypes.ts -->
<g id="node3" class="node">
<title>types/mapTypes.ts</title>
<path fill="none" stroke="#cfffac" d="M1180.33,-523C1180.33,-523 1065.67,-523 1065.67,-523 1061.83,-523 1058,-519.17 1058,-515.33 1058,-515.33 1058,-507.67 1058,-507.67 1058,-503.83 1061.83,-500 1065.67,-500 1065.67,-500 1180.33,-500 1180.33,-500 1184.17,-500 1188,-503.83 1188,-507.67 1188,-507.67 1188,-515.33 1188,-515.33 1188,-519.17 1184.17,-523 1180.33,-523"/>
<text text-anchor="middle" x="1123" y="-507.8" font-family="Arial" font-size="14.00" fill="#cfffac">types/mapTypes.ts</text>
</g>
<!-- components/Map/EnhancedMapComponent.tsx&#45;&gt;types/mapTypes.ts -->
<g id="edge2" class="edge">
<title>components/Map/EnhancedMapComponent.tsx&#45;&gt;types/mapTypes.ts</title>
<path fill="none" stroke="#757575" d="M580.47,-423.05C618.23,-431.89 672.27,-443.97 720,-452.5 843.69,-474.6 875.77,-472.67 1000,-491.5 1015.41,-493.84 1031.89,-496.45 1047.59,-499.01"/>
<polygon fill="#757575" stroke="#757575" points="1047.35,-502.52 1057.78,-500.67 1048.48,-495.61 1047.35,-502.52"/>
</g>
<!-- utils/googleMapsLoader.ts -->
<g id="node4" class="node">
<title>utils/googleMapsLoader.ts</title>
<path fill="none" stroke="#c6c5fe" d="M1202.33,-403C1202.33,-403 1043.67,-403 1043.67,-403 1039.83,-403 1036,-399.17 1036,-395.33 1036,-395.33 1036,-387.67 1036,-387.67 1036,-383.83 1039.83,-380 1043.67,-380 1043.67,-380 1202.33,-380 1202.33,-380 1206.17,-380 1210,-383.83 1210,-387.67 1210,-387.67 1210,-395.33 1210,-395.33 1210,-399.17 1206.17,-403 1202.33,-403"/>
<text text-anchor="middle" x="1123" y="-387.8" font-family="Arial" font-size="14.00" fill="#c6c5fe">utils/googleMapsLoader.ts</text>
</g>
<!-- components/Map/EnhancedMapComponent.tsx&#45;&gt;utils/googleMapsLoader.ts -->
<g id="edge3" class="edge">
<title>components/Map/EnhancedMapComponent.tsx&#45;&gt;utils/googleMapsLoader.ts</title>
<path fill="none" stroke="#757575" d="M684.31,-406.35C792,-402.7 933.27,-397.9 1025.78,-394.76"/>
<polygon fill="#757575" stroke="#757575" points="1026.1,-398.26 1035.98,-394.42 1025.87,-391.26 1026.1,-398.26"/>
</g>
<!-- utils/mapConfig.ts -->
<g id="node5" class="node">
<title>utils/mapConfig.ts</title>
<path fill="none" stroke="#c6c5fe" d="M914.83,-363C914.83,-363 805.17,-363 805.17,-363 801.33,-363 797.5,-359.17 797.5,-355.33 797.5,-355.33 797.5,-347.67 797.5,-347.67 797.5,-343.83 801.33,-340 805.17,-340 805.17,-340 914.83,-340 914.83,-340 918.67,-340 922.5,-343.83 922.5,-347.67 922.5,-347.67 922.5,-355.33 922.5,-355.33 922.5,-359.17 918.67,-363 914.83,-363"/>
<text text-anchor="middle" x="860" y="-347.8" font-family="Arial" font-size="14.00" fill="#c6c5fe">utils/mapConfig.ts</text>
</g>
<!-- components/Map/EnhancedMapComponent.tsx&#45;&gt;utils/mapConfig.ts -->
<g id="edge4" class="edge">
<title>components/Map/EnhancedMapComponent.tsx&#45;&gt;utils/mapConfig.ts</title>
<path fill="none" stroke="#757575" d="M595.45,-399.93C650.34,-389.84 729.93,-375.22 787.27,-364.68"/>
<polygon fill="#757575" stroke="#757575" points="788.15,-368.08 797.35,-362.83 786.88,-361.19 788.15,-368.08"/>
</g>
<!-- utils/placesService.ts -->
<g id="node6" class="node">
<title>utils/placesService.ts</title>
<path fill="none" stroke="#c6c5fe" d="M923.83,-523C923.83,-523 796.17,-523 796.17,-523 792.33,-523 788.5,-519.17 788.5,-515.33 788.5,-515.33 788.5,-507.67 788.5,-507.67 788.5,-503.83 792.33,-500 796.17,-500 796.17,-500 923.83,-500 923.83,-500 927.67,-500 931.5,-503.83 931.5,-507.67 931.5,-507.67 931.5,-515.33 931.5,-515.33 931.5,-519.17 927.67,-523 923.83,-523"/>
<text text-anchor="middle" x="860" y="-507.8" font-family="Arial" font-size="14.00" fill="#c6c5fe">utils/placesService.ts</text>
</g>
<!-- components/Map/EnhancedMapComponent.tsx&#45;&gt;utils/placesService.ts -->
<g id="edge5" class="edge">
<title>components/Map/EnhancedMapComponent.tsx&#45;&gt;utils/placesService.ts</title>
<path fill="none" stroke="#757575" d="M557.44,-423.12C592.87,-439.22 660.14,-468.26 720,-485.5 738.68,-490.88 759.11,-495.42 778.41,-499.12"/>
<polygon fill="#757575" stroke="#757575" points="777.92,-502.59 788.39,-500.99 779.2,-495.71 777.92,-502.59"/>
</g>
<!-- utils/errorHandling.ts -->
<g id="node26" class="node">
<title>utils/errorHandling.ts</title>
<path fill="none" stroke="#c6c5fe" d="M1570.33,-382C1570.33,-382 1445.67,-382 1445.67,-382 1441.83,-382 1438,-378.17 1438,-374.33 1438,-374.33 1438,-366.67 1438,-366.67 1438,-362.83 1441.83,-359 1445.67,-359 1445.67,-359 1570.33,-359 1570.33,-359 1574.17,-359 1578,-362.83 1578,-366.67 1578,-366.67 1578,-374.33 1578,-374.33 1578,-378.17 1574.17,-382 1570.33,-382"/>
<text text-anchor="middle" x="1508" y="-366.8" font-family="Arial" font-size="14.00" fill="#c6c5fe">utils/errorHandling.ts</text>
</g>
<!-- utils/googleMapsLoader.ts&#45;&gt;utils/errorHandling.ts -->
<g id="edge31" class="edge">
<title>utils/googleMapsLoader.ts&#45;&gt;utils/errorHandling.ts</title>
<path fill="none" stroke="#757575" d="M1210.43,-386.76C1275.53,-383.19 1364.1,-378.34 1427.46,-374.86"/>
<polygon fill="#757575" stroke="#757575" points="1428.01,-378.34 1437.8,-374.29 1427.62,-371.35 1428.01,-378.34"/>
</g>
<!-- utils/networkDetection.ts -->
<g id="node27" class="node">
<title>utils/networkDetection.ts</title>
<path fill="none" stroke="#cfffac" d="M1788.33,-422C1788.33,-422 1640.67,-422 1640.67,-422 1636.83,-422 1633,-418.17 1633,-414.33 1633,-414.33 1633,-406.67 1633,-406.67 1633,-402.83 1636.83,-399 1640.67,-399 1640.67,-399 1788.33,-399 1788.33,-399 1792.17,-399 1796,-402.83 1796,-406.67 1796,-406.67 1796,-414.33 1796,-414.33 1796,-418.17 1792.17,-422 1788.33,-422"/>
<text text-anchor="middle" x="1714.5" y="-406.8" font-family="Arial" font-size="14.00" fill="#cfffac">utils/networkDetection.ts</text>
</g>
<!-- utils/googleMapsLoader.ts&#45;&gt;utils/networkDetection.ts -->
<g id="edge33" class="edge">
<title>utils/googleMapsLoader.ts&#45;&gt;utils/networkDetection.ts</title>
<path fill="none" stroke="#757575" d="M1151,-403.1C1175.32,-412.88 1212.32,-426.12 1246,-431.5 1382.04,-453.23 1542.98,-436.96 1636.14,-423.5"/>
<polygon fill="#757575" stroke="#757575" points="1636.67,-426.96 1646.05,-422.04 1635.65,-420.03 1636.67,-426.96"/>
</g>
<!-- utils/mapsService.ts -->
<g id="node29" class="node">
<title>utils/mapsService.ts</title>
<path fill="none" stroke="#c6c5fe" d="M1375.33,-422C1375.33,-422 1253.67,-422 1253.67,-422 1249.83,-422 1246,-418.17 1246,-414.33 1246,-414.33 1246,-406.67 1246,-406.67 1246,-402.83 1249.83,-399 1253.67,-399 1253.67,-399 1375.33,-399 1375.33,-399 1379.17,-399 1383,-402.83 1383,-406.67 1383,-406.67 1383,-414.33 1383,-414.33 1383,-418.17 1379.17,-422 1375.33,-422"/>
<text text-anchor="middle" x="1314.5" y="-406.8" font-family="Arial" font-size="14.00" fill="#c6c5fe">utils/mapsService.ts</text>
</g>
<!-- utils/googleMapsLoader.ts&#45;&gt;utils/mapsService.ts -->
<g id="edge32" class="edge">
<title>utils/googleMapsLoader.ts&#45;&gt;utils/mapsService.ts</title>
<path fill="none" stroke="#757575" d="M1210.16,-400.14C1218.64,-400.99 1227.21,-401.85 1235.6,-402.69"/>
<polygon fill="#757575" stroke="#757575" points="1235.43,-406.19 1245.72,-403.7 1236.12,-399.22 1235.43,-406.19"/>
</g>
<!-- utils/mapConfig.ts&#45;&gt;utils/googleMapsLoader.ts -->
<g id="edge34" class="edge">
<title>utils/mapConfig.ts&#45;&gt;utils/googleMapsLoader.ts</title>
<path fill="none" stroke="#757575" d="M922.52,-360.93C956.55,-366.14 999.35,-372.7 1036.58,-378.41"/>
<polygon fill="#757575" stroke="#757575" points="1036.51,-381.94 1046.92,-379.99 1037.57,-375.02 1036.51,-381.94"/>
</g>
<!-- utils/placesService.ts&#45;&gt;types/mapTypes.ts -->
<g id="edge37" class="edge">
<title>utils/placesService.ts&#45;&gt;types/mapTypes.ts</title>
<path fill="none" stroke="#757575" d="M931.63,-511.5C967.51,-511.5 1011.1,-511.5 1047.51,-511.5"/>
<polygon fill="#757575" stroke="#757575" points="1047.57,-515 1057.57,-511.5 1047.57,-508 1047.57,-515"/>
</g>
<!-- components/forms/FormSelector.tsx -->
<g id="node7" class="node">
<title>components/forms/FormSelector.tsx</title>
<path fill="none" stroke="#c6c5fe" d="M641.33,-283C641.33,-283 421.67,-283 421.67,-283 417.83,-283 414,-279.17 414,-275.33 414,-275.33 414,-267.67 414,-267.67 414,-263.83 417.83,-260 421.67,-260 421.67,-260 641.33,-260 641.33,-260 645.17,-260 649,-263.83 649,-267.67 649,-267.67 649,-275.33 649,-275.33 649,-279.17 645.17,-283 641.33,-283"/>
<text text-anchor="middle" x="531.5" y="-267.8" font-family="Arial" font-size="14.00" fill="#c6c5fe">components/forms/FormSelector.tsx</text>
</g>
<!-- utils/formIntegration.ts -->
<g id="node8" class="node">
<title>utils/formIntegration.ts</title>
<path fill="none" stroke="#c6c5fe" d="M927.33,-283C927.33,-283 792.67,-283 792.67,-283 788.83,-283 785,-279.17 785,-275.33 785,-275.33 785,-267.67 785,-267.67 785,-263.83 788.83,-260 792.67,-260 792.67,-260 927.33,-260 927.33,-260 931.17,-260 935,-263.83 935,-267.67 935,-267.67 935,-275.33 935,-275.33 935,-279.17 931.17,-283 927.33,-283"/>
<text text-anchor="middle" x="860" y="-267.8" font-family="Arial" font-size="14.00" fill="#c6c5fe">utils/formIntegration.ts</text>
</g>
<!-- components/forms/FormSelector.tsx&#45;&gt;utils/formIntegration.ts -->
<g id="edge6" class="edge">
<title>components/forms/FormSelector.tsx&#45;&gt;utils/formIntegration.ts</title>
<path fill="none" stroke="#757575" d="M649.45,-271.5C690.77,-271.5 736.41,-271.5 774.51,-271.5"/>
<polygon fill="#757575" stroke="#757575" points="774.54,-275 784.54,-271.5 774.54,-268 774.54,-275"/>
</g>
<!-- context/SyncContext.tsx -->
<g id="node9" class="node">
<title>context/SyncContext.tsx</title>
<path fill="none" stroke="#c6c5fe" d="M1195.83,-293C1195.83,-293 1050.17,-293 1050.17,-293 1046.33,-293 1042.5,-289.17 1042.5,-285.33 1042.5,-285.33 1042.5,-277.67 1042.5,-277.67 1042.5,-273.83 1046.33,-270 1050.17,-270 1050.17,-270 1195.83,-270 1195.83,-270 1199.67,-270 1203.5,-273.83 1203.5,-277.67 1203.5,-277.67 1203.5,-285.33 1203.5,-285.33 1203.5,-289.17 1199.67,-293 1195.83,-293"/>
<text text-anchor="middle" x="1123" y="-277.8" font-family="Arial" font-size="14.00" fill="#c6c5fe">context/SyncContext.tsx</text>
</g>
<!-- utils/formIntegration.ts&#45;&gt;context/SyncContext.tsx -->
<g id="edge28" class="edge">
<title>utils/formIntegration.ts&#45;&gt;context/SyncContext.tsx</title>
<path fill="none" stroke="#757575" d="M935.09,-274.34C965.28,-275.5 1000.46,-276.84 1032.1,-278.06"/>
<polygon fill="#757575" stroke="#757575" points="1032.11,-281.56 1042.24,-278.44 1032.38,-274.56 1032.11,-281.56"/>
</g>
<!-- firebase.ts -->
<g id="node14" class="node">
<title>firebase.ts</title>
<path fill="none" stroke="#c6c5fe" d="M1539.83,-105C1539.83,-105 1476.17,-105 1476.17,-105 1472.33,-105 1468.5,-101.17 1468.5,-97.33 1468.5,-97.33 1468.5,-89.67 1468.5,-89.67 1468.5,-85.83 1472.33,-82 1476.17,-82 1476.17,-82 1539.83,-82 1539.83,-82 1543.67,-82 1547.5,-85.83 1547.5,-89.67 1547.5,-89.67 1547.5,-97.33 1547.5,-97.33 1547.5,-101.17 1543.67,-105 1539.83,-105"/>
<text text-anchor="middle" x="1508" y="-89.8" font-family="Arial" font-size="14.00" fill="#c6c5fe">firebase.ts</text>
</g>
<!-- utils/formIntegration.ts&#45;&gt;firebase.ts -->
<g id="edge29" class="edge">
<title>utils/formIntegration.ts&#45;&gt;firebase.ts</title>
<path fill="none" stroke="#757575" d="M899.04,-259.98C989.02,-232.91 1222.17,-163.7 1419,-113.5 1431.7,-110.26 1445.49,-107 1458.31,-104.09"/>
<polygon fill="#757575" stroke="#757575" points="1459.36,-107.44 1468.34,-101.83 1457.82,-100.61 1459.36,-107.44"/>
</g>
<!-- utils/formIntegration.ts&#45;&gt;utils/errorHandling.ts -->
<g id="edge30" class="edge">
<title>utils/formIntegration.ts&#45;&gt;utils/errorHandling.ts</title>
<path fill="none" stroke="#757575" d="M926.17,-283.06C959.07,-288.8 999.62,-295.72 1036,-301.5 1173.62,-323.37 1334.27,-346.36 1427.92,-359.51"/>
<polygon fill="#757575" stroke="#757575" points="1427.49,-362.99 1437.88,-360.91 1428.47,-356.06 1427.49,-362.99"/>
</g>
<!-- utils/firebaseConnectionHandler.ts -->
<g id="node10" class="node">
<title>utils/firebaseConnectionHandler.ts</title>
<path fill="none" stroke="#c6c5fe" d="M2045.33,-105C2045.33,-105 1839.67,-105 1839.67,-105 1835.83,-105 1832,-101.17 1832,-97.33 1832,-97.33 1832,-89.67 1832,-89.67 1832,-85.83 1835.83,-82 1839.67,-82 1839.67,-82 2045.33,-82 2045.33,-82 2049.17,-82 2053,-85.83 2053,-89.67 2053,-89.67 2053,-97.33 2053,-97.33 2053,-101.17 2049.17,-105 2045.33,-105"/>
<text text-anchor="middle" x="1942.5" y="-89.8" font-family="Arial" font-size="14.00" fill="#c6c5fe">utils/firebaseConnectionHandler.ts</text>
</g>
<!-- context/SyncContext.tsx&#45;&gt;utils/firebaseConnectionHandler.ts -->
<g id="edge7" class="edge">
<title>context/SyncContext.tsx&#45;&gt;utils/firebaseConnectionHandler.ts</title>
<path fill="none" stroke="#757575" d="M1201.18,-293.03C1330.61,-308.81 1596.78,-325.9 1796,-236.5 1827.11,-222.54 1893.74,-148.67 1924.86,-112.92"/>
<polygon fill="#757575" stroke="#757575" points="1927.72,-114.96 1931.62,-105.11 1922.43,-110.38 1927.72,-114.96"/>
</g>
<!-- utils/syncService.ts -->
<g id="node11" class="node">
<title>utils/syncService.ts</title>
<path fill="none" stroke="#c6c5fe" d="M1372.33,-222C1372.33,-222 1256.67,-222 1256.67,-222 1252.83,-222 1249,-218.17 1249,-214.33 1249,-214.33 1249,-206.67 1249,-206.67 1249,-202.83 1252.83,-199 1256.67,-199 1256.67,-199 1372.33,-199 1372.33,-199 1376.17,-199 1380,-202.83 1380,-206.67 1380,-206.67 1380,-214.33 1380,-214.33 1380,-218.17 1376.17,-222 1372.33,-222"/>
<text text-anchor="middle" x="1314.5" y="-206.8" font-family="Arial" font-size="14.00" fill="#c6c5fe">utils/syncService.ts</text>
</g>
<!-- context/SyncContext.tsx&#45;&gt;utils/syncService.ts -->
<g id="edge8" class="edge">
<title>context/SyncContext.tsx&#45;&gt;utils/syncService.ts</title>
<path fill="none" stroke="#757575" d="M1154.87,-269.93C1187.08,-257.87 1237.73,-238.89 1273.1,-225.64"/>
<polygon fill="#757575" stroke="#757575" points="1274.51,-228.85 1282.65,-222.06 1272.05,-222.29 1274.51,-228.85"/>
</g>
<!-- firebaseConfig.ts -->
<g id="node20" class="node">
<title>firebaseConfig.ts</title>
<path fill="none" stroke="#cfffac" d="M2199.33,-105C2199.33,-105 2096.67,-105 2096.67,-105 2092.83,-105 2089,-101.17 2089,-97.33 2089,-97.33 2089,-89.67 2089,-89.67 2089,-85.83 2092.83,-82 2096.67,-82 2096.67,-82 2199.33,-82 2199.33,-82 2203.17,-82 2207,-85.83 2207,-89.67 2207,-89.67 2207,-97.33 2207,-97.33 2207,-101.17 2203.17,-105 2199.33,-105"/>
<text text-anchor="middle" x="2148" y="-89.8" font-family="Arial" font-size="14.00" fill="#cfffac">firebaseConfig.ts</text>
</g>
<!-- utils/firebaseConnectionHandler.ts&#45;&gt;firebaseConfig.ts -->
<g id="edge27" class="edge">
<title>utils/firebaseConnectionHandler.ts&#45;&gt;firebaseConfig.ts</title>
<path fill="none" stroke="#757575" d="M2053.29,-93.5C2061.94,-93.5 2070.5,-93.5 2078.74,-93.5"/>
<polygon fill="#757575" stroke="#757575" points="2078.98,-97 2088.98,-93.5 2078.98,-90 2078.98,-97"/>
</g>
<!-- utils/syncService.ts&#45;&gt;firebase.ts -->
<g id="edge38" class="edge">
<title>utils/syncService.ts&#45;&gt;firebase.ts</title>
<path fill="none" stroke="#757575" d="M1335.08,-198.94C1349.27,-190.03 1368.45,-176.83 1383,-162.5 1402.26,-143.54 1396.4,-128.32 1419,-113.5 1430.59,-105.9 1444.68,-101.17 1458.15,-98.22"/>
<polygon fill="#757575" stroke="#757575" points="1459.11,-101.6 1468.28,-96.3 1457.81,-94.73 1459.11,-101.6"/>
</g>
<!-- types/workshop&#45;tyre&#45;inventory.ts -->
<g id="node23" class="node">
<title>types/workshop&#45;tyre&#45;inventory.ts</title>
<path fill="none" stroke="#cfffac" d="M2039.83,-248C2039.83,-248 1845.17,-248 1845.17,-248 1841.33,-248 1837.5,-244.17 1837.5,-240.33 1837.5,-240.33 1837.5,-232.67 1837.5,-232.67 1837.5,-228.83 1841.33,-225 1845.17,-225 1845.17,-225 2039.83,-225 2039.83,-225 2043.67,-225 2047.5,-228.83 2047.5,-232.67 2047.5,-232.67 2047.5,-240.33 2047.5,-240.33 2047.5,-244.17 2043.67,-248 2039.83,-248"/>
<text text-anchor="middle" x="1942.5" y="-232.8" font-family="Arial" font-size="14.00" fill="#cfffac">types/workshop&#45;tyre&#45;inventory.ts</text>
</g>
<!-- utils/syncService.ts&#45;&gt;types/workshop&#45;tyre&#45;inventory.ts -->
<g id="edge40" class="edge">
<title>utils/syncService.ts&#45;&gt;types/workshop&#45;tyre&#45;inventory.ts</title>
<path fill="none" stroke="#757575" d="M1352.45,-222.13C1372.01,-227.69 1396.57,-233.73 1419,-236.5 1558.76,-253.79 1721.16,-250.11 1827.34,-244.53"/>
<polygon fill="#757575" stroke="#757575" points="1827.64,-248.02 1837.44,-243.99 1827.27,-241.03 1827.64,-248.02"/>
</g>
<!-- types/workshop&#45;job&#45;card.ts -->
<g id="node25" class="node">
<title>types/workshop&#45;job&#45;card.ts</title>
<path fill="none" stroke="#cfffac" d="M1589.33,-228C1589.33,-228 1426.67,-228 1426.67,-228 1422.83,-228 1419,-224.17 1419,-220.33 1419,-220.33 1419,-212.67 1419,-212.67 1419,-208.83 1422.83,-205 1426.67,-205 1426.67,-205 1589.33,-205 1589.33,-205 1593.17,-205 1597,-208.83 1597,-212.67 1597,-212.67 1597,-220.33 1597,-220.33 1597,-224.17 1593.17,-228 1589.33,-228"/>
<text text-anchor="middle" x="1508" y="-212.8" font-family="Arial" font-size="14.00" fill="#cfffac">types/workshop&#45;job&#45;card.ts</text>
</g>
<!-- utils/syncService.ts&#45;&gt;types/workshop&#45;job&#45;card.ts -->
<g id="edge39" class="edge">
<title>utils/syncService.ts&#45;&gt;types/workshop&#45;job&#45;card.ts</title>
<path fill="none" stroke="#757575" d="M1380.07,-212.52C1389.33,-212.81 1399.04,-213.12 1408.78,-213.42"/>
<polygon fill="#757575" stroke="#757575" points="1408.82,-216.93 1418.92,-213.74 1409.04,-209.93 1408.82,-216.93"/>
</g>
<!-- utils/firestoreUtils.ts -->
<g id="node28" class="node">
<title>utils/firestoreUtils.ts</title>
<path fill="none" stroke="#cfffac" d="M1567.33,-187C1567.33,-187 1448.67,-187 1448.67,-187 1444.83,-187 1441,-183.17 1441,-179.33 1441,-179.33 1441,-171.67 1441,-171.67 1441,-167.83 1444.83,-164 1448.67,-164 1448.67,-164 1567.33,-164 1567.33,-164 1571.17,-164 1575,-167.83 1575,-171.67 1575,-171.67 1575,-179.33 1575,-179.33 1575,-183.17 1571.17,-187 1567.33,-187"/>
<text text-anchor="middle" x="1508" y="-171.8" font-family="Arial" font-size="14.00" fill="#cfffac">utils/firestoreUtils.ts</text>
</g>
<!-- utils/syncService.ts&#45;&gt;utils/firestoreUtils.ts -->
<g id="edge41" class="edge">
<title>utils/syncService.ts&#45;&gt;utils/firestoreUtils.ts</title>
<path fill="none" stroke="#757575" d="M1378.47,-198.99C1396.22,-195.75 1415.68,-192.19 1433.97,-188.85"/>
<polygon fill="#757575" stroke="#757575" points="1434.78,-192.26 1443.99,-187.02 1433.53,-185.37 1434.78,-192.26"/>
</g>
<!-- utils/tyreConstants.ts -->
<g id="node30" class="node">
<title>utils/tyreConstants.ts</title>
<path fill="none" stroke="#cfffac" d="M1571.33,-146C1571.33,-146 1444.67,-146 1444.67,-146 1440.83,-146 1437,-142.17 1437,-138.33 1437,-138.33 1437,-130.67 1437,-130.67 1437,-126.83 1440.83,-123 1444.67,-123 1444.67,-123 1571.33,-123 1571.33,-123 1575.17,-123 1579,-126.83 1579,-130.67 1579,-130.67 1579,-138.33 1579,-138.33 1579,-142.17 1575.17,-146 1571.33,-146"/>
<text text-anchor="middle" x="1508" y="-130.8" font-family="Arial" font-size="14.00" fill="#cfffac">utils/tyreConstants.ts</text>
</g>
<!-- utils/syncService.ts&#45;&gt;utils/tyreConstants.ts -->
<g id="edge42" class="edge">
<title>utils/syncService.ts&#45;&gt;utils/tyreConstants.ts</title>
<path fill="none" stroke="#757575" d="M1333.48,-198.8C1353.57,-186.2 1387.45,-166.37 1419,-154.5 1424.54,-152.42 1430.37,-150.51 1436.27,-148.78"/>
<polygon fill="#757575" stroke="#757575" points="1437.53,-152.06 1446.24,-146.02 1435.67,-145.31 1437.53,-152.06"/>
</g>
<!-- data/tyreData.ts -->
<g id="node12" class="node">
<title>data/tyreData.ts</title>
<path fill="none" stroke="#cfffac" d="M1762.83,-23C1762.83,-23 1666.17,-23 1666.17,-23 1662.33,-23 1658.5,-19.17 1658.5,-15.33 1658.5,-15.33 1658.5,-7.67 1658.5,-7.67 1658.5,-3.83 1662.33,0 1666.17,0 1666.17,0 1762.83,0 1762.83,0 1766.67,0 1770.5,-3.83 1770.5,-7.67 1770.5,-7.67 1770.5,-15.33 1770.5,-15.33 1770.5,-19.17 1766.67,-23 1762.83,-23"/>
<text text-anchor="middle" x="1714.5" y="-7.8" font-family="Arial" font-size="14.00" fill="#cfffac">data/tyreData.ts</text>
</g>
<!-- debug&#45;deployment.js -->
<g id="node13" class="node">
<title>debug&#45;deployment.js</title>
<path fill="none" stroke="#cfffac" d="M145.33,-364C145.33,-364 17.67,-364 17.67,-364 13.83,-364 10,-360.17 10,-356.33 10,-356.33 10,-348.67 10,-348.67 10,-344.83 13.83,-341 17.67,-341 17.67,-341 145.33,-341 145.33,-341 149.17,-341 153,-344.83 153,-348.67 153,-348.67 153,-356.33 153,-356.33 153,-360.17 149.17,-364 145.33,-364"/>
<text text-anchor="middle" x="81.5" y="-348.8" font-family="Arial" font-size="14.00" fill="#cfffac">debug&#45;deployment.js</text>
</g>
<!-- firebase.ts&#45;&gt;data/tyreData.ts -->
<g id="edge9" class="edge">
<title>firebase.ts&#45;&gt;data/tyreData.ts</title>
<path fill="none" stroke="#757575" d="M1529.01,-81.77C1553.02,-68.09 1594.84,-45.58 1633,-31.5 1638.45,-29.49 1644.19,-27.61 1649.98,-25.88"/>
<polygon fill="#757575" stroke="#757575" points="1651.08,-29.21 1659.74,-23.11 1649.16,-22.47 1651.08,-29.21"/>
</g>
<!-- types/diesel.d.ts -->
<g id="node15" class="node">
<title>types/diesel.d.ts</title>
<path fill="none" stroke="#cfffac" d="M1763.33,-187C1763.33,-187 1665.67,-187 1665.67,-187 1661.83,-187 1658,-183.17 1658,-179.33 1658,-179.33 1658,-171.67 1658,-171.67 1658,-167.83 1661.83,-164 1665.67,-164 1665.67,-164 1763.33,-164 1763.33,-164 1767.17,-164 1771,-167.83 1771,-171.67 1771,-171.67 1771,-179.33 1771,-179.33 1771,-183.17 1767.17,-187 1763.33,-187"/>
<text text-anchor="middle" x="1714.5" y="-171.8" font-family="Arial" font-size="14.00" fill="#cfffac">types/diesel.d.ts</text>
</g>
<!-- firebase.ts&#45;&gt;types/diesel.d.ts -->
<g id="edge10" class="edge">
<title>firebase.ts&#45;&gt;types/diesel.d.ts</title>
<path fill="none" stroke="#757575" d="M1547.77,-96.99C1563.86,-99.75 1582.19,-104.69 1597,-113.5 1617.84,-125.9 1612.36,-141.77 1633,-154.5 1637.69,-157.39 1642.76,-159.89 1648.01,-162.04"/>
<polygon fill="#757575" stroke="#757575" points="1646.99,-165.4 1657.59,-165.56 1649.41,-158.83 1646.99,-165.4"/>
</g>
<!-- types/trip.ts -->
<g id="node16" class="node">
<title>types/trip.ts</title>
<path fill="none" stroke="#cfffac" d="M1749.83,-146C1749.83,-146 1679.17,-146 1679.17,-146 1675.33,-146 1671.5,-142.17 1671.5,-138.33 1671.5,-138.33 1671.5,-130.67 1671.5,-130.67 1671.5,-126.83 1675.33,-123 1679.17,-123 1679.17,-123 1749.83,-123 1749.83,-123 1753.67,-123 1757.5,-126.83 1757.5,-130.67 1757.5,-130.67 1757.5,-138.33 1757.5,-138.33 1757.5,-142.17 1753.67,-146 1749.83,-146"/>
<text text-anchor="middle" x="1714.5" y="-130.8" font-family="Arial" font-size="14.00" fill="#cfffac">types/trip.ts</text>
</g>
<!-- firebase.ts&#45;&gt;types/trip.ts -->
<g id="edge11" class="edge">
<title>firebase.ts&#45;&gt;types/trip.ts</title>
<path fill="none" stroke="#757575" d="M1547.95,-101.31C1580.01,-107.74 1625.77,-116.91 1661.05,-123.99"/>
<polygon fill="#757575" stroke="#757575" points="1660.68,-127.48 1671.17,-126.01 1662.06,-120.62 1660.68,-127.48"/>
</g>
<!-- types/tyre&#45;inspection.ts -->
<g id="node17" class="node">
<title>types/tyre&#45;inspection.ts</title>
<path fill="none" stroke="#c6c5fe" d="M1784.33,-228C1784.33,-228 1644.67,-228 1644.67,-228 1640.83,-228 1637,-224.17 1637,-220.33 1637,-220.33 1637,-212.67 1637,-212.67 1637,-208.83 1640.83,-205 1644.67,-205 1644.67,-205 1784.33,-205 1784.33,-205 1788.17,-205 1792,-208.83 1792,-212.67 1792,-212.67 1792,-220.33 1792,-220.33 1792,-224.17 1788.17,-228 1784.33,-228"/>
<text text-anchor="middle" x="1714.5" y="-212.8" font-family="Arial" font-size="14.00" fill="#c6c5fe">types/tyre&#45;inspection.ts</text>
</g>
<!-- firebase.ts&#45;&gt;types/tyre&#45;inspection.ts -->
<g id="edge12" class="edge">
<title>firebase.ts&#45;&gt;types/tyre&#45;inspection.ts</title>
<path fill="none" stroke="#757575" d="M1547.92,-94.7C1564.6,-97.01 1583.35,-102.23 1597,-113.5 1627.69,-138.84 1602.72,-169.67 1633,-195.5 1634.79,-197.02 1636.67,-198.44 1638.63,-199.75"/>
<polygon fill="#757575" stroke="#757575" points="1637.25,-202.99 1647.67,-204.88 1640.7,-196.9 1637.25,-202.99"/>
</g>
<!-- types/tyreStores.ts -->
<g id="node18" class="node">
<title>types/tyreStores.ts</title>
<path fill="none" stroke="#c6c5fe" d="M1770.83,-64C1770.83,-64 1658.17,-64 1658.17,-64 1654.33,-64 1650.5,-60.17 1650.5,-56.33 1650.5,-56.33 1650.5,-48.67 1650.5,-48.67 1650.5,-44.83 1654.33,-41 1658.17,-41 1658.17,-41 1770.83,-41 1770.83,-41 1774.67,-41 1778.5,-44.83 1778.5,-48.67 1778.5,-48.67 1778.5,-56.33 1778.5,-56.33 1778.5,-60.17 1774.67,-64 1770.83,-64"/>
<text text-anchor="middle" x="1714.5" y="-48.8" font-family="Arial" font-size="14.00" fill="#c6c5fe">types/tyreStores.ts</text>
</g>
<!-- firebase.ts&#45;&gt;types/tyreStores.ts -->
<g id="edge13" class="edge">
<title>firebase.ts&#45;&gt;types/tyreStores.ts</title>
<path fill="none" stroke="#757575" d="M1547.95,-85.69C1575.67,-80.13 1613.64,-72.52 1646.22,-65.99"/>
<polygon fill="#757575" stroke="#757575" points="1647.02,-69.4 1656.14,-64 1645.64,-62.54 1647.02,-69.4"/>
</g>
<!-- types/tyres.ts -->
<g id="node19" class="node">
<title>types/tyres.ts</title>
<path fill="none" stroke="#c6c5fe" d="M1754.83,-105C1754.83,-105 1674.17,-105 1674.17,-105 1670.33,-105 1666.5,-101.17 1666.5,-97.33 1666.5,-97.33 1666.5,-89.67 1666.5,-89.67 1666.5,-85.83 1670.33,-82 1674.17,-82 1674.17,-82 1754.83,-82 1754.83,-82 1758.67,-82 1762.5,-85.83 1762.5,-89.67 1762.5,-89.67 1762.5,-97.33 1762.5,-97.33 1762.5,-101.17 1758.67,-105 1754.83,-105"/>
<text text-anchor="middle" x="1714.5" y="-89.8" font-family="Arial" font-size="14.00" fill="#c6c5fe">types/tyres.ts</text>
</g>
<!-- firebase.ts&#45;&gt;types/tyres.ts -->
<g id="edge14" class="edge">
<title>firebase.ts&#45;&gt;types/tyres.ts</title>
<path fill="none" stroke="#757575" d="M1547.95,-93.5C1578.51,-93.5 1621.51,-93.5 1656.03,-93.5"/>
<polygon fill="#757575" stroke="#757575" points="1656.44,-97 1666.44,-93.5 1656.44,-90 1656.44,-97"/>
</g>
<!-- types/tyre&#45;inspection.ts&#45;&gt;types/workshop&#45;tyre&#45;inventory.ts -->
<g id="edge21" class="edge">
<title>types/tyre&#45;inspection.ts&#45;&gt;types/workshop&#45;tyre&#45;inventory.ts</title>
<path fill="none" stroke="#757575" d="M1792.01,-223.27C1803.42,-224.28 1815.38,-225.34 1827.36,-226.4"/>
<polygon fill="#757575" stroke="#757575" points="1827.14,-229.89 1837.41,-227.29 1827.76,-222.92 1827.14,-229.89"/>
</g>
<!-- types/tyreStores.ts&#45;&gt;utils/firebaseConnectionHandler.ts -->
<g id="edge23" class="edge">
<title>types/tyreStores.ts&#45;&gt;utils/firebaseConnectionHandler.ts</title>
<path fill="none" stroke="#757575" d="M1778.75,-63.98C1806.44,-69 1839.1,-74.92 1867.87,-80.14"/>
<polygon fill="#757575" stroke="#757575" points="1867.4,-83.62 1877.87,-81.96 1868.65,-76.73 1867.4,-83.62"/>
</g>
<!-- types/tyre.ts -->
<g id="node24" class="node">
<title>types/tyre.ts</title>
<path fill="none" stroke="#cfffac" d="M1979.33,-64C1979.33,-64 1905.67,-64 1905.67,-64 1901.83,-64 1898,-60.17 1898,-56.33 1898,-56.33 1898,-48.67 1898,-48.67 1898,-44.83 1901.83,-41 1905.67,-41 1905.67,-41 1979.33,-41 1979.33,-41 1983.17,-41 1987,-44.83 1987,-48.67 1987,-48.67 1987,-56.33 1987,-56.33 1987,-60.17 1983.17,-64 1979.33,-64"/>
<text text-anchor="middle" x="1942.5" y="-48.8" font-family="Arial" font-size="14.00" fill="#cfffac">types/tyre.ts</text>
</g>
<!-- types/tyreStores.ts&#45;&gt;types/tyre.ts -->
<g id="edge22" class="edge">
<title>types/tyreStores.ts&#45;&gt;types/tyre.ts</title>
<path fill="none" stroke="#757575" d="M1778.75,-52.5C1813.04,-52.5 1854.97,-52.5 1887.68,-52.5"/>
<polygon fill="#757575" stroke="#757575" points="1887.95,-56 1897.95,-52.5 1887.95,-49 1887.95,-56"/>
</g>
<!-- types/tyres.ts&#45;&gt;utils/firebaseConnectionHandler.ts -->
<g id="edge25" class="edge">
<title>types/tyres.ts&#45;&gt;utils/firebaseConnectionHandler.ts</title>
<path fill="none" stroke="#757575" d="M1762.6,-93.5C1779.94,-93.5 1800.47,-93.5 1821.32,-93.5"/>
<polygon fill="#757575" stroke="#757575" points="1821.57,-97 1831.57,-93.5 1821.57,-90 1821.57,-97"/>
</g>
<!-- types/tyres.ts&#45;&gt;types/tyre.ts -->
<g id="edge24" class="edge">
<title>types/tyres.ts&#45;&gt;types/tyre.ts</title>
<path fill="none" stroke="#757575" d="M1762.6,-84.95C1799.18,-78.32 1849.91,-69.12 1888.01,-62.2"/>
<polygon fill="#757575" stroke="#757575" points="1888.69,-65.64 1897.91,-60.41 1887.44,-58.75 1888.69,-65.64"/>
</g>
<!-- pages/Dashboard.tsx -->
<g id="node21" class="node">
<title>pages/Dashboard.tsx</title>
<path fill="none" stroke="#c6c5fe" d="M335.33,-323C335.33,-323 206.67,-323 206.67,-323 202.83,-323 199,-319.17 199,-315.33 199,-315.33 199,-307.67 199,-307.67 199,-303.83 202.83,-300 206.67,-300 206.67,-300 335.33,-300 335.33,-300 339.17,-300 343,-303.83 343,-307.67 343,-307.67 343,-315.33 343,-315.33 343,-319.17 339.17,-323 335.33,-323"/>
<text text-anchor="middle" x="271" y="-307.8" font-family="Arial" font-size="14.00" fill="#c6c5fe">pages/Dashboard.tsx</text>
</g>
<!-- pages/Dashboard.tsx&#45;&gt;components/Map/EnhancedMapComponent.tsx -->
<g id="edge15" class="edge">
<title>pages/Dashboard.tsx&#45;&gt;components/Map/EnhancedMapComponent.tsx</title>
<path fill="none" stroke="#757575" d="M301.91,-323.07C348.6,-341.13 438.86,-376.05 490.9,-396.18"/>
<polygon fill="#757575" stroke="#757575" points="489.88,-399.54 500.46,-399.88 492.4,-393.01 489.88,-399.54"/>
</g>
<!-- pages/Dashboard.tsx&#45;&gt;types/mapTypes.ts -->
<g id="edge19" class="edge">
<title>pages/Dashboard.tsx&#45;&gt;types/mapTypes.ts</title>
<path fill="none" stroke="#757575" d="M279,-323.1C294.14,-347.19 332.37,-402.88 379,-432.5 512.31,-517.19 563.67,-510.05 720,-532.5 843.18,-550.19 876.01,-543.09 1000,-532.5 1018.61,-530.91 1038.64,-527.98 1056.99,-524.8"/>
<polygon fill="#757575" stroke="#757575" points="1057.76,-528.22 1066.99,-523.02 1056.53,-521.33 1057.76,-528.22"/>
</g>
<!-- pages/Dashboard.tsx&#45;&gt;components/forms/FormSelector.tsx -->
<g id="edge16" class="edge">
<title>pages/Dashboard.tsx&#45;&gt;components/forms/FormSelector.tsx</title>
<path fill="none" stroke="#757575" d="M343.32,-300.46C375.01,-295.56 412.56,-289.75 445.68,-284.62"/>
<polygon fill="#757575" stroke="#757575" points="446.46,-288.05 455.8,-283.06 445.39,-281.13 446.46,-288.05"/>
</g>
<!-- pages/Dashboard.tsx&#45;&gt;context/SyncContext.tsx -->
<g id="edge17" class="edge">
<title>pages/Dashboard.tsx&#45;&gt;context/SyncContext.tsx</title>
<path fill="none" stroke="#757575" d="M343.1,-310.83C473.43,-309.31 759.34,-304.66 1000,-291.5 1010.37,-290.93 1021.23,-290.22 1032.01,-289.43"/>
<polygon fill="#757575" stroke="#757575" points="1032.6,-292.9 1042.31,-288.66 1032.07,-285.92 1032.6,-292.9"/>
</g>
<!-- pages/Dashboard.tsx&#45;&gt;firebase.ts -->
<g id="edge18" class="edge">
<title>pages/Dashboard.tsx&#45;&gt;firebase.ts</title>
<path fill="none" stroke="#757575" d="M289.89,-299.8C359.63,-255.36 621.17,-99.5 859,-99.5 859,-99.5 859,-99.5 1124,-99.5 1244.11,-99.5 1385.39,-96.51 1458.17,-94.75"/>
<polygon fill="#757575" stroke="#757575" points="1458.49,-98.25 1468.41,-94.5 1458.32,-91.25 1458.49,-98.25"/>
</g>
<!-- test&#45;dashboard&#45;import.js -->
<g id="node22" class="node">
<title>test&#45;dashboard&#45;import.js</title>
<path fill="none" stroke="#c6c5fe" d="M155.33,-323C155.33,-323 7.67,-323 7.67,-323 3.83,-323 0,-319.17 0,-315.33 0,-315.33 0,-307.67 0,-307.67 0,-303.83 3.83,-300 7.67,-300 7.67,-300 155.33,-300 155.33,-300 159.17,-300 163,-303.83 163,-307.67 163,-307.67 163,-315.33 163,-315.33 163,-319.17 159.17,-323 155.33,-323"/>
<text text-anchor="middle" x="81.5" y="-307.8" font-family="Arial" font-size="14.00" fill="#c6c5fe">test&#45;dashboard&#45;import.js</text>
</g>
<!-- test&#45;dashboard&#45;import.js&#45;&gt;pages/Dashboard.tsx -->
<g id="edge20" class="edge">
<title>test&#45;dashboard&#45;import.js&#45;&gt;pages/Dashboard.tsx</title>
<path fill="none" stroke="#757575" d="M163.11,-311.5C171.57,-311.5 180.19,-311.5 188.66,-311.5"/>
<polygon fill="#757575" stroke="#757575" points="188.91,-315 198.91,-311.5 188.91,-308 188.91,-315"/>
</g>
<!-- utils/errorHandling.ts&#45;&gt;utils/networkDetection.ts -->
<g id="edge26" class="edge">
<title>utils/errorHandling.ts&#45;&gt;utils/networkDetection.ts</title>
<path fill="none" stroke="#757575" d="M1567.88,-382.02C1591.83,-386.7 1619.69,-392.15 1644.58,-397.02"/>
<polygon fill="#757575" stroke="#757575" points="1644.2,-400.51 1654.69,-399 1645.54,-393.64 1644.2,-400.51"/>
</g>
<!-- utils/mapsService.ts&#45;&gt;utils/errorHandling.ts -->
<g id="edge35" class="edge">
<title>utils/mapsService.ts&#45;&gt;utils/errorHandling.ts</title>
<path fill="none" stroke="#757575" d="M1370.63,-398.98C1392.87,-394.34 1418.69,-388.95 1441.84,-384.11"/>
<polygon fill="#757575" stroke="#757575" points="1442.85,-387.47 1451.92,-382 1441.42,-380.62 1442.85,-387.47"/>
</g>
<!-- utils/mapsService.ts&#45;&gt;utils/networkDetection.ts -->
<g id="edge36" class="edge">
<title>utils/mapsService.ts&#45;&gt;utils/networkDetection.ts</title>
<path fill="none" stroke="#757575" d="M1383.02,-410.5C1449,-410.5 1549.88,-410.5 1622.83,-410.5"/>
<polygon fill="#757575" stroke="#757575" points="1622.93,-414 1632.93,-410.5 1622.93,-407 1622.93,-414"/>
</g>
</g>
</svg>
